
<svg width="1000" height="200" xmlns="http://www.w3.org/2000/svg">
  <rect width="100%" height="100%" fill="#020617"/>

  <g transform="translate(20,20)">
    <rect x="0" y="0"
        width="12" height="12"
        fill="#0b1220"/><rect x="0" y="16"
        width="12" height="12"
        fill="#0b1220"/><rect x="0" y="32"
        width="12" height="12"
        fill="#0b1220"/><rect x="0" y="48"
        width="12" height="12"
        fill="#0b1220"/><rect x="0" y="64"
        width="12" height="12"
        fill="#0b1220"/><rect x="0" y="80"
        width="12" height="12"
        fill="#0b1220"/><rect x="0" y="96"
        width="12" height="12"
        fill="#0b1220"/><rect x="16" y="0"
        width="12" height="12"
        fill="#0b1220"/><rect x="16" y="16"
        width="12" height="12"
        fill="#0b1220"/><rect x="16" y="32"
        width="12" height="12"
        fill="#0b1220"/><rect x="16" y="48"
        width="12" height="12"
        fill="#0b1220"/><rect x="16" y="64"
        width="12" height="12"
        fill="#0b1220"/><rect x="16" y="80"
        width="12" height="12"
        fill="#0b1220"/><rect x="16" y="96"
        width="12" height="12"
        fill="#0b1220"/><rect x="32" y="0"
        width="12" height="12"
        fill="#0b1220"/><rect x="32" y="16"
        width="12" height="12"
        fill="#0b1220"/><rect x="32" y="32"
        width="12" height="12"
        fill="#0b1220"/><rect x="32" y="48"
        width="12" height="12"
        fill="#0ea5e9"/><rect x="32" y="64"
        width="12" height="12"
        fill="#0b1220"/><rect x="32" y="80"
        width="12" height="12"
        fill="#0b1220"/><rect x="32" y="96"
        width="12" height="12"
        fill="#0b1220"/><rect x="48" y="0"
        width="12" height="12"
        fill="#0b1220"/><rect x="48" y="16"
        width="12" height="12"
        fill="#0b1220"/><rect x="48" y="32"
        width="12" height="12"
        fill="#0b1220"/><rect x="48" y="48"
        width="12" height="12"
        fill="#0b1220"/><rect x="48" y="64"
        width="12" height="12"
        fill="#0b1220"/><rect x="48" y="80"
        width="12" height="12"
        fill="#0b1220"/><rect x="48" y="96"
        width="12" height="12"
        fill="#0b1220"/><rect x="64" y="0"
        width="12" height="12"
        fill="#0b1220"/><rect x="64" y="16"
        width="12" height="12"
        fill="#0b1220"/><rect x="64" y="32"
        width="12" height="12"
        fill="#0b1220"/><rect x="64" y="48"
        width="12" height="12"
        fill="#0b1220"/><rect x="64" y="64"
        width="12" height="12"
        fill="#0b1220"/><rect x="64" y="80"
        width="12" height="12"
        fill="#0b1220"/><rect x="64" y="96"
        width="12" height="12"
        fill="#0b1220"/><rect x="80" y="0"
        width="12" height="12"
        fill="#0b1220"/><rect x="80" y="16"
        width="12" height="12"
        fill="#22d3ee"/><rect x="80" y="32"
        width="12" height="12"
        fill="#0b1220"/><rect x="80" y="48"
        width="12" height="12"
        fill="#0b1220"/><rect x="80" y="64"
        width="12" height="12"
        fill="#0b1220"/><rect x="80" y="80"
        width="12" height="12"
        fill="#0b1220"/><rect x="80" y="96"
        width="12" height="12"
        fill="#0b1220"/><rect x="96" y="0"
        width="12" height="12"
        fill="#0b1220"/><rect x="96" y="16"
        width="12" height="12"
        fill="#0b1220"/><rect x="96" y="32"
        width="12" height="12"
        fill="#0b1220"/><rect x="96" y="48"
        width="12" height="12"
        fill="#0b1220"/><rect x="96" y="64"
        width="12" height="12"
        fill="#0b1220"/><rect x="96" y="80"
        width="12" height="12"
        fill="#0b1220"/><rect x="96" y="96"
        width="12" height="12"
        fill="#0b1220"/><rect x="112" y="0"
        width="12" height="12"
        fill="#0b1220"/><rect x="112" y="16"
        width="12" height="12"
        fill="#0b1220"/><rect x="112" y="32"
        width="12" height="12"
        fill="#0b1220"/><rect x="112" y="48"
        width="12" height="12"
        fill="#0b1220"/><rect x="112" y="64"
        width="12" height="12"
        fill="#0b1220"/><rect x="112" y="80"
        width="12" height="12"
        fill="#0b1220"/><rect x="112" y="96"
        width="12" height="12"
        fill="#0b1220"/><rect x="128" y="0"
        width="12" height="12"
        fill="#0b1220"/><rect x="128" y="16"
        width="12" height="12"
        fill="#0b1220"/><rect x="128" y="32"
        width="12" height="12"
        fill="#0b1220"/><rect x="128" y="48"
        width="12" height="12"
        fill="#0b1220"/><rect x="128" y="64"
        width="12" height="12"
        fill="#0b1220"/><rect x="128" y="80"
        width="12" height="12"
        fill="#0b1220"/><rect x="128" y="96"
        width="12" height="12"
        fill="#0b1220"/><rect x="144" y="0"
        width="12" height="12"
        fill="#38bdf8"/><rect x="144" y="16"
        width="12" height="12"
        fill="#0b1220"/><rect x="144" y="32"
        width="12" height="12"
        fill="#0b1220"/><rect x="144" y="48"
        width="12" height="12"
        fill="#0ea5e9"/><rect x="144" y="64"
        width="12" height="12"
        fill="#38bdf8"/><rect x="144" y="80"
        width="12" height="12"
        fill="#0b1220"/><rect x="144" y="96"
        width="12" height="12"
        fill="#0b1220"/><rect x="160" y="0"
        width="12" height="12"
        fill="#0b1220"/><rect x="160" y="16"
        width="12" height="12"
        fill="#0b1220"/><rect x="160" y="32"
        width="12" height="12"
        fill="#0b1220"/><rect x="160" y="48"
        width="12" height="12"
        fill="#0b1220"/><rect x="160" y="64"
        width="12" height="12"
        fill="#0b1220"/><rect x="160" y="80"
        width="12" height="12"
        fill="#0b1220"/><rect x="160" y="96"
        width="12" height="12"
        fill="#0b1220"/><rect x="176" y="0"
        width="12" height="12"
        fill="#0b1220"/><rect x="176" y="16"
        width="12" height="12"
        fill="#0b1220"/><rect x="176" y="32"
        width="12" height="12"
        fill="#0b1220"/><rect x="176" y="48"
        width="12" height="12"
        fill="#0b1220"/><rect x="176" y="64"
        width="12" height="12"
        fill="#0b1220"/><rect x="176" y="80"
        width="12" height="12"
        fill="#0ea5e9"/><rect x="176" y="96"
        width="12" height="12"
        fill="#0b1220"/><rect x="192" y="0"
        width="12" height="12"
        fill="#22d3ee"/><rect x="192" y="16"
        width="12" height="12"
        fill="#0b1220"/><rect x="192" y="32"
        width="12" height="12"
        fill="#0b1220"/><rect x="192" y="48"
        width="12" height="12"
        fill="#0b1220"/><rect x="192" y="64"
        width="12" height="12"
        fill="#0b1220"/><rect x="192" y="80"
        width="12" height="12"
        fill="#0b1220"/><rect x="192" y="96"
        width="12" height="12"
        fill="#0b1220"/><rect x="208" y="0"
        width="12" height="12"
        fill="#38bdf8"/><rect x="208" y="16"
        width="12" height="12"
        fill="#0b1220"/><rect x="208" y="32"
        width="12" height="12"
        fill="#0b1220"/><rect x="208" y="48"
        width="12" height="12"
        fill="#0b1220"/><rect x="208" y="64"
        width="12" height="12"
        fill="#0b1220"/><rect x="208" y="80"
        width="12" height="12"
        fill="#0b1220"/><rect x="208" y="96"
        width="12" height="12"
        fill="#22d3ee"/><rect x="224" y="0"
        width="12" height="12"
        fill="#0ea5e9"/><rect x="224" y="16"
        width="12" height="12"
        fill="#0b1220"/><rect x="224" y="32"
        width="12" height="12"
        fill="#0b1220"/><rect x="224" y="48"
        width="12" height="12"
        fill="#0b1220"/><rect x="224" y="64"
        width="12" height="12"
        fill="#0b1220"/><rect x="224" y="80"
        width="12" height="12"
        fill="#0b1220"/><rect x="224" y="96"
        width="12" height="12"
        fill="#0b1220"/><rect x="240" y="0"
        width="12" height="12"
        fill="#0b1220"/><rect x="240" y="16"
        width="12" height="12"
        fill="#0b1220"/><rect x="240" y="32"
        width="12" height="12"
        fill="#0b1220"/><rect x="240" y="48"
        width="12" height="12"
        fill="#0b1220"/><rect x="240" y="64"
        width="12" height="12"
        fill="#0b1220"/><rect x="240" y="80"
        width="12" height="12"
        fill="#0b1220"/><rect x="240" y="96"
        width="12" height="12"
        fill="#0b1220"/><rect x="256" y="0"
        width="12" height="12"
        fill="#38bdf8"/><rect x="256" y="16"
        width="12" height="12"
        fill="#0b1220"/><rect x="256" y="32"
        width="12" height="12"
        fill="#0b1220"/><rect x="256" y="48"
        width="12" height="12"
        fill="#0b1220"/><rect x="256" y="64"
        width="12" height="12"
        fill="#0b1220"/><rect x="256" y="80"
        width="12" height="12"
        fill="#0b1220"/><rect x="256" y="96"
        width="12" height="12"
        fill="#0b1220"/><rect x="272" y="0"
        width="12" height="12"
        fill="#0b1220"/><rect x="272" y="16"
        width="12" height="12"
        fill="#0b1220"/><rect x="272" y="32"
        width="12" height="12"
        fill="#0b1220"/><rect x="272" y="48"
        width="12" height="12"
        fill="#0b1220"/><rect x="272" y="64"
        width="12" height="12"
        fill="#0b1220"/><rect x="272" y="80"
        width="12" height="12"
        fill="#0b1220"/><rect x="272" y="96"
        width="12" height="12"
        fill="#0b1220"/><rect x="288" y="0"
        width="12" height="12"
        fill="#0b1220"/><rect x="288" y="16"
        width="12" height="12"
        fill="#0b1220"/><rect x="288" y="32"
        width="12" height="12"
        fill="#0b1220"/><rect x="288" y="48"
        width="12" height="12"
        fill="#0b1220"/><rect x="288" y="64"
        width="12" height="12"
        fill="#0b1220"/><rect x="288" y="80"
        width="12" height="12"
        fill="#0b1220"/><rect x="288" y="96"
        width="12" height="12"
        fill="#0b1220"/><rect x="304" y="0"
        width="12" height="12"
        fill="#0b1220"/><rect x="304" y="16"
        width="12" height="12"
        fill="#0b1220"/><rect x="304" y="32"
        width="12" height="12"
        fill="#0b1220"/><rect x="304" y="48"
        width="12" height="12"
        fill="#0b1220"/><rect x="304" y="64"
        width="12" height="12"
        fill="#0b1220"/><rect x="304" y="80"
        width="12" height="12"
        fill="#0b1220"/><rect x="304" y="96"
        width="12" height="12"
        fill="#0b1220"/><rect x="320" y="0"
        width="12" height="12"
        fill="#0b1220"/><rect x="320" y="16"
        width="12" height="12"
        fill="#0b1220"/><rect x="320" y="32"
        width="12" height="12"
        fill="#0b1220"/><rect x="320" y="48"
        width="12" height="12"
        fill="#0b1220"/><rect x="320" y="64"
        width="12" height="12"
        fill="#0b1220"/><rect x="320" y="80"
        width="12" height="12"
        fill="#0b1220"/><rect x="320" y="96"
        width="12" height="12"
        fill="#0b1220"/><rect x="336" y="0"
        width="12" height="12"
        fill="#0b1220"/><rect x="336" y="16"
        width="12" height="12"
        fill="#0b1220"/><rect x="336" y="32"
        width="12" height="12"
        fill="#0b1220"/><rect x="336" y="48"
        width="12" height="12"
        fill="#0b1220"/><rect x="336" y="64"
        width="12" height="12"
        fill="#0b1220"/><rect x="336" y="80"
        width="12" height="12"
        fill="#0b1220"/><rect x="336" y="96"
        width="12" height="12"
        fill="#0b1220"/><rect x="352" y="0"
        width="12" height="12"
        fill="#0b1220"/><rect x="352" y="16"
        width="12" height="12"
        fill="#0b1220"/><rect x="352" y="32"
        width="12" height="12"
        fill="#0b1220"/><rect x="352" y="48"
        width="12" height="12"
        fill="#0b1220"/><rect x="352" y="64"
        width="12" height="12"
        fill="#0b1220"/><rect x="352" y="80"
        width="12" height="12"
        fill="#0b1220"/><rect x="352" y="96"
        width="12" height="12"
        fill="#0b1220"/><rect x="368" y="0"
        width="12" height="12"
        fill="#0b1220"/><rect x="368" y="16"
        width="12" height="12"
        fill="#0b1220"/><rect x="368" y="32"
        width="12" height="12"
        fill="#0b1220"/><rect x="368" y="48"
        width="12" height="12"
        fill="#0b1220"/><rect x="368" y="64"
        width="12" height="12"
        fill="#0b1220"/><rect x="368" y="80"
        width="12" height="12"
        fill="#0b1220"/><rect x="368" y="96"
        width="12" height="12"
        fill="#0b1220"/><rect x="384" y="0"
        width="12" height="12"
        fill="#0b1220"/><rect x="384" y="16"
        width="12" height="12"
        fill="#0b1220"/><rect x="384" y="32"
        width="12" height="12"
        fill="#0b1220"/><rect x="384" y="48"
        width="12" height="12"
        fill="#0b1220"/><rect x="384" y="64"
        width="12" height="12"
        fill="#0b1220"/><rect x="384" y="80"
        width="12" height="12"
        fill="#0b1220"/><rect x="384" y="96"
        width="12" height="12"
        fill="#0b1220"/><rect x="400" y="0"
        width="12" height="12"
        fill="#0b1220"/><rect x="400" y="16"
        width="12" height="12"
        fill="#0b1220"/><rect x="400" y="32"
        width="12" height="12"
        fill="#0b1220"/><rect x="400" y="48"
        width="12" height="12"
        fill="#0b1220"/><rect x="400" y="64"
        width="12" height="12"
        fill="#0b1220"/><rect x="400" y="80"
        width="12" height="12"
        fill="#0b1220"/><rect x="400" y="96"
        width="12" height="12"
        fill="#0b1220"/><rect x="416" y="0"
        width="12" height="12"
        fill="#0b1220"/><rect x="416" y="16"
        width="12" height="12"
        fill="#0b1220"/><rect x="416" y="32"
        width="12" height="12"
        fill="#0b1220"/><rect x="416" y="48"
        width="12" height="12"
        fill="#0b1220"/><rect x="416" y="64"
        width="12" height="12"
        fill="#0b1220"/><rect x="416" y="80"
        width="12" height="12"
        fill="#0b1220"/><rect x="416" y="96"
        width="12" height="12"
        fill="#0b1220"/><rect x="432" y="0"
        width="12" height="12"
        fill="#0b1220"/><rect x="432" y="16"
        width="12" height="12"
        fill="#0b1220"/><rect x="432" y="32"
        width="12" height="12"
        fill="#0b1220"/><rect x="432" y="48"
        width="12" height="12"
        fill="#0b1220"/><rect x="432" y="64"
        width="12" height="12"
        fill="#0b1220"/><rect x="432" y="80"
        width="12" height="12"
        fill="#0b1220"/><rect x="432" y="96"
        width="12" height="12"
        fill="#0b1220"/><rect x="448" y="0"
        width="12" height="12"
        fill="#0b1220"/><rect x="448" y="16"
        width="12" height="12"
        fill="#0b1220"/><rect x="448" y="32"
        width="12" height="12"
        fill="#0b1220"/><rect x="448" y="48"
        width="12" height="12"
        fill="#0b1220"/><rect x="448" y="64"
        width="12" height="12"
        fill="#0b1220"/><rect x="448" y="80"
        width="12" height="12"
        fill="#0b1220"/><rect x="448" y="96"
        width="12" height="12"
        fill="#0b1220"/><rect x="464" y="0"
        width="12" height="12"
        fill="#0b1220"/><rect x="464" y="16"
        width="12" height="12"
        fill="#0b1220"/><rect x="464" y="32"
        width="12" height="12"
        fill="#0b1220"/><rect x="464" y="48"
        width="12" height="12"
        fill="#0b1220"/><rect x="464" y="64"
        width="12" height="12"
        fill="#0b1220"/><rect x="464" y="80"
        width="12" height="12"
        fill="#0b1220"/><rect x="464" y="96"
        width="12" height="12"
        fill="#0b1220"/><rect x="480" y="0"
        width="12" height="12"
        fill="#0b1220"/><rect x="480" y="16"
        width="12" height="12"
        fill="#0b1220"/><rect x="480" y="32"
        width="12" height="12"
        fill="#0b1220"/><rect x="480" y="48"
        width="12" height="12"
        fill="#0b1220"/><rect x="480" y="64"
        width="12" height="12"
        fill="#0b1220"/><rect x="480" y="80"
        width="12" height="12"
        fill="#0b1220"/><rect x="480" y="96"
        width="12" height="12"
        fill="#0b1220"/><rect x="496" y="0"
        width="12" height="12"
        fill="#0b1220"/><rect x="496" y="16"
        width="12" height="12"
        fill="#0b1220"/><rect x="496" y="32"
        width="12" height="12"
        fill="#0b1220"/><rect x="496" y="48"
        width="12" height="12"
        fill="#0b1220"/><rect x="496" y="64"
        width="12" height="12"
        fill="#0b1220"/><rect x="496" y="80"
        width="12" height="12"
        fill="#0b1220"/><rect x="496" y="96"
        width="12" height="12"
        fill="#0b1220"/><rect x="512" y="0"
        width="12" height="12"
        fill="#0b1220"/><rect x="512" y="16"
        width="12" height="12"
        fill="#0b1220"/><rect x="512" y="32"
        width="12" height="12"
        fill="#0b1220"/><rect x="512" y="48"
        width="12" height="12"
        fill="#0b1220"/><rect x="512" y="64"
        width="12" height="12"
        fill="#0b1220"/><rect x="512" y="80"
        width="12" height="12"
        fill="#0b1220"/><rect x="512" y="96"
        width="12" height="12"
        fill="#0b1220"/><rect x="528" y="0"
        width="12" height="12"
        fill="#0b1220"/><rect x="528" y="16"
        width="12" height="12"
        fill="#0b1220"/><rect x="528" y="32"
        width="12" height="12"
        fill="#0b1220"/><rect x="528" y="48"
        width="12" height="12"
        fill="#0b1220"/><rect x="528" y="64"
        width="12" height="12"
        fill="#0b1220"/><rect x="528" y="80"
        width="12" height="12"
        fill="#0b1220"/><rect x="528" y="96"
        width="12" height="12"
        fill="#0b1220"/><rect x="544" y="0"
        width="12" height="12"
        fill="#0b1220"/><rect x="544" y="16"
        width="12" height="12"
        fill="#0b1220"/><rect x="544" y="32"
        width="12" height="12"
        fill="#0b1220"/><rect x="544" y="48"
        width="12" height="12"
        fill="#0b1220"/><rect x="544" y="64"
        width="12" height="12"
        fill="#0b1220"/><rect x="544" y="80"
        width="12" height="12"
        fill="#0b1220"/><rect x="544" y="96"
        width="12" height="12"
        fill="#0b1220"/><rect x="560" y="0"
        width="12" height="12"
        fill="#0b1220"/><rect x="560" y="16"
        width="12" height="12"
        fill="#0b1220"/><rect x="560" y="32"
        width="12" height="12"
        fill="#0b1220"/><rect x="560" y="48"
        width="12" height="12"
        fill="#0b1220"/><rect x="560" y="64"
        width="12" height="12"
        fill="#0b1220"/><rect x="560" y="80"
        width="12" height="12"
        fill="#0b1220"/><rect x="560" y="96"
        width="12" height="12"
        fill="#0b1220"/><rect x="576" y="0"
        width="12" height="12"
        fill="#0b1220"/><rect x="576" y="16"
        width="12" height="12"
        fill="#0b1220"/><rect x="576" y="32"
        width="12" height="12"
        fill="#0b1220"/><rect x="576" y="48"
        width="12" height="12"
        fill="#0b1220"/><rect x="576" y="64"
        width="12" height="12"
        fill="#0b1220"/><rect x="576" y="80"
        width="12" height="12"
        fill="#0b1220"/><rect x="576" y="96"
        width="12" height="12"
        fill="#0b1220"/><rect x="592" y="0"
        width="12" height="12"
        fill="#0b1220"/><rect x="592" y="16"
        width="12" height="12"
        fill="#0b1220"/><rect x="592" y="32"
        width="12" height="12"
        fill="#0b1220"/><rect x="592" y="48"
        width="12" height="12"
        fill="#0b1220"/><rect x="592" y="64"
        width="12" height="12"
        fill="#0b1220"/><rect x="592" y="80"
        width="12" height="12"
        fill="#0b1220"/><rect x="592" y="96"
        width="12" height="12"
        fill="#0b1220"/><rect x="608" y="0"
        width="12" height="12"
        fill="#0b1220"/><rect x="608" y="16"
        width="12" height="12"
        fill="#0b1220"/><rect x="608" y="32"
        width="12" height="12"
        fill="#0b1220"/><rect x="608" y="48"
        width="12" height="12"
        fill="#0b1220"/><rect x="608" y="64"
        width="12" height="12"
        fill="#0b1220"/><rect x="608" y="80"
        width="12" height="12"
        fill="#0b1220"/><rect x="608" y="96"
        width="12" height="12"
        fill="#0b1220"/><rect x="624" y="0"
        width="12" height="12"
        fill="#0b1220"/><rect x="624" y="16"
        width="12" height="12"
        fill="#38bdf8"/><rect x="624" y="32"
        width="12" height="12"
        fill="#0b1220"/><rect x="624" y="48"
        width="12" height="12"
        fill="#0b1220"/><rect x="624" y="64"
        width="12" height="12"
        fill="#0b1220"/><rect x="624" y="80"
        width="12" height="12"
        fill="#0b1220"/><rect x="624" y="96"
        width="12" height="12"
        fill="#0b1220"/><rect x="640" y="0"
        width="12" height="12"
        fill="#0b1220"/><rect x="640" y="16"
        width="12" height="12"
        fill="#0b1220"/><rect x="640" y="32"
        width="12" height="12"
        fill="#0b1220"/><rect x="640" y="48"
        width="12" height="12"
        fill="#0b1220"/><rect x="640" y="64"
        width="12" height="12"
        fill="#0b1220"/><rect x="640" y="80"
        width="12" height="12"
        fill="#0b1220"/><rect x="640" y="96"
        width="12" height="12"
        fill="#0b1220"/><rect x="656" y="0"
        width="12" height="12"
        fill="#0b1220"/><rect x="656" y="16"
        width="12" height="12"
        fill="#0b1220"/><rect x="656" y="32"
        width="12" height="12"
        fill="#0b1220"/><rect x="656" y="48"
        width="12" height="12"
        fill="#0b1220"/><rect x="656" y="64"
        width="12" height="12"
        fill="#0b1220"/><rect x="656" y="80"
        width="12" height="12"
        fill="#0b1220"/><rect x="656" y="96"
        width="12" height="12"
        fill="#0b1220"/><rect x="672" y="0"
        width="12" height="12"
        fill="#0b1220"/><rect x="672" y="16"
        width="12" height="12"
        fill="#0b1220"/><rect x="672" y="32"
        width="12" height="12"
        fill="#0b1220"/><rect x="672" y="48"
        width="12" height="12"
        fill="#0b1220"/><rect x="672" y="64"
        width="12" height="12"
        fill="#0b1220"/><rect x="672" y="80"
        width="12" height="12"
        fill="#0b1220"/><rect x="672" y="96"
        width="12" height="12"
        fill="#0b1220"/><rect x="688" y="0"
        width="12" height="12"
        fill="#0b1220"/><rect x="688" y="16"
        width="12" height="12"
        fill="#0b1220"/><rect x="688" y="32"
        width="12" height="12"
        fill="#0b1220"/><rect x="688" y="48"
        width="12" height="12"
        fill="#0ea5e9"/><rect x="688" y="64"
        width="12" height="12"
        fill="#0b1220"/><rect x="688" y="80"
        width="12" height="12"
        fill="#0b1220"/><rect x="688" y="96"
        width="12" height="12"
        fill="#0b1220"/><rect x="704" y="0"
        width="12" height="12"
        fill="#0b1220"/><rect x="704" y="16"
        width="12" height="12"
        fill="#0b1220"/><rect x="704" y="32"
        width="12" height="12"
        fill="#0b1220"/><rect x="704" y="48"
        width="12" height="12"
        fill="#0b1220"/><rect x="704" y="64"
        width="12" height="12"
        fill="#0b1220"/><rect x="704" y="80"
        width="12" height="12"
        fill="#0b1220"/><rect x="704" y="96"
        width="12" height="12"
        fill="#0b1220"/><rect x="720" y="0"
        width="12" height="12"
        fill="#0b1220"/><rect x="720" y="16"
        width="12" height="12"
        fill="#0b1220"/><rect x="720" y="32"
        width="12" height="12"
        fill="#0b1220"/><rect x="720" y="48"
        width="12" height="12"
        fill="#0b1220"/><rect x="720" y="64"
        width="12" height="12"
        fill="#0b1220"/><rect x="720" y="80"
        width="12" height="12"
        fill="#0b1220"/><rect x="720" y="96"
        width="12" height="12"
        fill="#0b1220"/><rect x="736" y="0"
        width="12" height="12"
        fill="#0b1220"/><rect x="736" y="16"
        width="12" height="12"
        fill="#0b1220"/><rect x="736" y="32"
        width="12" height="12"
        fill="#0b1220"/><rect x="736" y="48"
        width="12" height="12"
        fill="#0b1220"/><rect x="736" y="64"
        width="12" height="12"
        fill="#0b1220"/><rect x="736" y="80"
        width="12" height="12"
        fill="#0b1220"/><rect x="736" y="96"
        width="12" height="12"
        fill="#0b1220"/><rect x="752" y="0"
        width="12" height="12"
        fill="#0b1220"/><rect x="752" y="16"
        width="12" height="12"
        fill="#0b1220"/><rect x="752" y="32"
        width="12" height="12"
        fill="#0b1220"/><rect x="752" y="48"
        width="12" height="12"
        fill="#0b1220"/><rect x="752" y="64"
        width="12" height="12"
        fill="#0b1220"/><rect x="752" y="80"
        width="12" height="12"
        fill="#0b1220"/><rect x="752" y="96"
        width="12" height="12"
        fill="#0b1220"/><rect x="768" y="0"
        width="12" height="12"
        fill="#0b1220"/><rect x="768" y="16"
        width="12" height="12"
        fill="#0b1220"/><rect x="768" y="32"
        width="12" height="12"
        fill="#0b1220"/><rect x="768" y="48"
        width="12" height="12"
        fill="#0b1220"/><rect x="768" y="64"
        width="12" height="12"
        fill="#0b1220"/><rect x="768" y="80"
        width="12" height="12"
        fill="#0b1220"/><rect x="768" y="96"
        width="12" height="12"
        fill="#0b1220"/><rect x="784" y="0"
        width="12" height="12"
        fill="#0b1220"/><rect x="784" y="16"
        width="12" height="12"
        fill="#0b1220"/><rect x="784" y="32"
        width="12" height="12"
        fill="#67e8f9"/><rect x="784" y="48"
        width="12" height="12"
        fill="#0b1220"/><rect x="784" y="64"
        width="12" height="12"
        fill="#0b1220"/><rect x="784" y="80"
        width="12" height="12"
        fill="#0b1220"/><rect x="784" y="96"
        width="12" height="12"
        fill="#0b1220"/><rect x="800" y="0"
        width="12" height="12"
        fill="#0b1220"/><rect x="800" y="16"
        width="12" height="12"
        fill="#0b1220"/><rect x="800" y="32"
        width="12" height="12"
        fill="#0b1220"/><rect x="800" y="48"
        width="12" height="12"
        fill="#0b1220"/><rect x="800" y="64"
        width="12" height="12"
        fill="#0b1220"/><rect x="800" y="80"
        width="12" height="12"
        fill="#0b1220"/><rect x="800" y="96"
        width="12" height="12"
        fill="#0b1220"/><rect x="816" y="0"
        width="12" height="12"
        fill="#0b1220"/><rect x="816" y="16"
        width="12" height="12"
        fill="#0b1220"/><rect x="816" y="32"
        width="12" height="12"
        fill="#0b1220"/><rect x="816" y="48"
        width="12" height="12"
        fill="#0b1220"/><rect x="816" y="64"
        width="12" height="12"
        fill="#0b1220"/><rect x="816" y="80"
        width="12" height="12"
        fill="#0b1220"/><rect x="816" y="96"
        width="12" height="12"
        fill="#0b1220"/><rect x="832" y="0"
        width="12" height="12"
        fill="#0b1220"/><rect x="832" y="16"
        width="12" height="12"
        fill="#0b1220"/><rect x="832" y="32"
        width="12" height="12"
        fill="#0b1220"/><rect x="832" y="48"
        width="12" height="12"
        fill="#0b1220"/><rect x="832" y="64"
        width="12" height="12"
        fill="#0b1220"/><rect x="832" y="80"
        width="12" height="12"
        fill="#67e8f9"/>
  </g>

  <path d="
    M 20 40 H 260
    M 260 40 V 80
    M 260 80 H 420
    M 420 80 V 40
    M 420 40 H 620
    M 620 40 V 80
    M 620 80 H 860

    M 20 100 H 200
    M 200 100 V 140
    M 200 140 H 360
    M 360 140 V 100
    M 360 100 H 560
    M 560 100 V 140
    M 560 140 H 760
    M 760 140 V 100
    M 760 100 H 900

    M 120 60 V 120
    M 300 60 V 120
    M 480 60 V 120
    M 660 60 V 120
  " stroke="#22d3ee" stroke-width="2" fill="none"/>

  
    <circle r="8" fill="yellow">
      <animateMotion dur="12s" repeatCount="indefinite" path="
    M 20 40
    H 260 V 80 H 420 V 40 H 620 V 80 H 860
    V 100 H 760 V 140 H 560 V 100 H 360 V 140 H 200 V 100 H 20
  " />
    </circle>
  
  
      <circle r="8" fill="#38bdf8">
        <animateMotion dur="12s" repeatCount="indefinite"
          path="
    M 20 40
    H 260 V 80 H 420 V 40 H 620 V 80 H 860
    V 100 H 760 V 140 H 560 V 100 H 360 V 140 H 200 V 100 H 20
  " begin="2s"/>
      </circle>
    
  
      <circle r="8" fill="#22d3ee">
        <animateMotion dur="12s" repeatCount="indefinite"
          path="
    M 20 40
    H 260 V 80 H 420 V 40 H 620 V 80 H 860
    V 100 H 760 V 140 H 560 V 100 H 360 V 140 H 200 V 100 H 20
  " begin="4s"/>
      </circle>
    
  
      <circle r="8" fill="#a78bfa">
        <animateMotion dur="12s" repeatCount="indefinite"
          path="
    M 20 40
    H 260 V 80 H 420 V 40 H 620 V 80 H 860
    V 100 H 760 V 140 H 560 V 100 H 360 V 140 H 200 V 100 H 20
  " begin="6s"/>
      </circle>
    
</svg>
